<svg width="32" height="32" xmlns="http://www.w3.org/2000/svg"><style>path{fill:#000}@media (prefers-color-scheme:dark){path{fill:#fff}}</style><g id="32x32" fill="none" fill-rule="evenodd"><path id="logo" d="M16 0C7.163 0 0 7.163 0 16s7.163 16 16 16 16-7.163 16-16S24.837 0 16 0zm-.241 3.177a2.07 2.07 0 0 1 2.074 2.065 2.07 2.07 0 1 1-2.074-2.065zm8.965 6.684l-6.154.777.003 6.161 2.983 9.955a1.16 1.16 0 0 1-.843 1.414c-.62.156-1.257-.188-1.413-.815l-3.056-9.062h-.94l-2.81 9.25c-.235.605-.91.88-1.51.645-.6-.231-.963-.911-.728-1.516l2.582-9.77v-6.262l-5.672-.77c-.582-.047-.977-.558-.93-1.141a1.072 1.072 0 0 1 1.153-.975l6.89.593H17.3l7.336-.605a1.054 1.054 0 0 1 1.097 1.018 1.06 1.06 0 0 1-1.01 1.103z" fill-rule="nonzero"/></g></svg>