<svg width="256" height="256" fill="none" xmlns="http://www.w3.org/2000/svg"><path d="M56.96 7.041L7.04 56.97A23.953 23.953 0 0 0 0 73.932v170.066C0 250.639 5.36 256 12 256h232c6.64 0 12-5.361 12-12.002V12.002C256 5.36 250.64 0 244 0H73.96C67.6 0 61.48 2.52 57 7.041h-.04z" fill="url(#paint0_radial_84_8417)"/><g filter="url(#filter0_d_84_8417)"><path d="M181.129 168.663h-18.533V94.079h49.403v17.368h-30.87v13.309h29.096v16.936h-29.096v26.974-.003z" fill="#fff"/><path opacity=".05" d="M157.707 137.362h18.37c-2.718 18.983-18.677 31.538-38.011 31.538-21.172 0-38.41-15.871-38.41-37.243a36.761 36.761 0 0 1 2.831-14.483 36.689 36.689 0 0 1 8.294-12.19A38.474 38.474 0 0 1 138.066 94.1c19.155 0 35.56 12.652 37.892 31.331h-18.351c-5.518-21.159-39.9-19.09-39.9 6.226 0 25.318 34.813 27.183 40 5.711v-.006z" fill="#002447"/><path d="M153.948 137.362c-3.152 10.68-14.369 17.03-25.41 14.371-11.048-2.669-17.97-13.379-15.676-24.266 2.29-10.89 12.973-18.065 24.196-16.248a20.034 20.034 0 0 1 11.997 6.237 20.558 20.558 0 0 1 4.79 7.972h17.814c-2.332-18.722-18.782-31.328-37.892-31.328a38.47 38.47 0 0 0-27.291 10.878 36.666 36.666 0 0 0-8.299 12.195 36.756 36.756 0 0 0-2.83 14.49c0 21.372 17.138 37.237 38.426 37.237 19.319 0 35.232-12.555 37.999-31.538h-17.827.003z" fill="#fff"/><path opacity=".05" d="M98.588 157.812H72.796L68.58 168.65H48.842L79.048 94h13.164l31.407 74.675H102.78l-4.198-10.863h.006zm-18.46-18.478l-.647 1.685h12.522l-.434-1.265-5.83-16.008-5.612 15.588z" fill="#002447"/><path d="M93.704 157.812h-25.75l-4.213 10.838H44L74.209 94h13.164l31.407 74.675H97.95l-4.246-10.863zm-18.418-18.478l-.644 1.685h12.522l-.437-1.265-5.827-16.008-5.611 15.588h-.003z" fill="#fff"/></g><defs><filter id="filter0_d_84_8417" x="36" y="86" width="183.999" height="90.9" filterUnits="userSpaceOnUse" color-interpolation-filters="sRGB"><feFlood flood-opacity="0" result="BackgroundImageFix"/><feColorMatrix in="SourceAlpha" values="0 0 0 0 0 0 0 0 0 0 0 0 0 0 0 0 0 0 127 0" result="hardAlpha"/><feOffset/><feGaussianBlur stdDeviation="4"/><feColorMatrix values="0 0 0 0 0 0 0 0 0 0.141176 0 0 0 0 0.278431 0 0 0 0.1 0"/><feBlend in2="BackgroundImageFix" result="effect1_dropShadow_84_8417"/><feBlend in="SourceGraphic" in2="effect1_dropShadow_84_8417" result="shape"/></filter><radialGradient id="paint0_radial_84_8417" cx="0" cy="0" r="1" gradientUnits="userSpaceOnUse" gradientTransform="rotate(45) scale(362.039)"><stop stop-color="#0ECAD4"/><stop offset="1" stop-color="#006BD6"/></radialGradient></defs></svg>