<svg viewBox="0 0 1600 1200" xmlns="http://www.w3.org/2000/svg" fill-rule="evenodd" clip-rule="evenodd" stroke-linejoin="round" stroke-miterlimit="2"><path d="M1153.77 1164.99H831.534c-34.89 0-63.211-28.33-63.211-63.223 0-34.883 28.321-63.213 63.211-63.213h210.49c32.846-2.253 58.83-29.645 58.83-63.055 0-34.892-28.321-63.213-63.214-63.213H883.746v-.01H708.264c-34.837 0-63.126-28.284-63.126-63.12 0-34.845 28.289-63.135 63.126-63.135h39.762l-.083-.076h59.112c34.824 0 63.098-28.271 63.098-63.096 0-34.824-28.274-63.095-63.098-63.095H658.382v-.057h-311.77c-34.824 0-63.102-28.277-63.102-63.107 0-34.825 28.278-63.102 63.102-63.102h311.77v-.177H780.45c34.793 0 63.043-28.246 63.043-63.045 0-34.793-28.25-63.044-63.043-63.044h-27.822l.006-.007H622.996c-34.843 0-63.126-28.29-63.126-63.127 0-34.843 28.283-63.133 63.126-63.133h299.35c1.493 0 2.966.05 4.431.152h107.005c34.883 0 63.205-28.323 63.205-63.209 0-34.888-28.322-63.209-63.205-63.209H876.489c-32.733-2.374-58.587-29.718-58.587-63.052 0-34.887 28.323-63.215 63.215-63.215h247.767c.273 0 .545 0 .836.006h292.14L909.974 587.447l619.145 577.6h-373.678l-.085-.085c-.525.019-1.051.028-1.586.028zm-606.521-126.436c34.768 0 62.995 28.227 62.995 62.988 0 34.77-28.227 62.988-62.995 62.988H316.093c-34.761 0-62.987-28.218-62.987-62.988 0-34.761 28.226-62.988 62.987-62.988h231.156zm-91.511-252.533c34.868 0 63.177 28.309 63.177 63.182 0 34.865-28.309 63.176-63.177 63.176-34.875 0-63.184-28.311-63.184-63.176 0-34.873 28.309-63.182 63.184-63.182zM125.627 533.488c34.874 0 63.183 28.309 63.183 63.183 0 34.868-28.309 63.177-63.183 63.177-34.868 0-63.177-28.309-63.177-63.177 0-34.874 28.309-63.183 63.177-63.183zM370.47 280.955c34.869 0 63.183 28.309 63.183 63.183 0 34.869-28.314 63.177-63.183 63.177-34.868 0-63.184-28.308-63.184-63.177 0-34.874 28.316-63.183 63.184-63.183zM597.049 28.422c34.767 0 62.988 28.227 62.988 62.988 0 34.768-28.221 62.994-62.988 62.994H450.933c-34.761 0-62.988-28.226-62.988-62.994 0-34.761 28.221-62.988 62.988-62.988h146.116z" fill="url(#_Linear1)"/><defs><linearGradient id="_Linear1" x2="1" gradientUnits="userSpaceOnUse" gradientTransform="matrix(0 1142.5 -885.4 0 751.517 30.302)"><stop offset="0" stop-color="#0073e6"/><stop offset="1" stop-color="#005ab3"/></linearGradient></defs></svg>