<svg width="166" height="263" fill="none" xmlns="http://www.w3.org/2000/svg"><path d="M42.086 128.474L28.427 90.089c-2.383-6.696 2.436-13.802 9.291-13.48 76.537 3.589 115.804 31.534 112.144 112.12-13.311-56.28-77.153-60.255-107.776-60.255z" fill="#58E5BB" filter="url(#filter0_i_15473_4390)"/><path d="M21.453 57.833L7.236 20.639C4.662 13.908 9.478 6.6 16.44 6.683c78.163.938 132.738 6.243 132.738 110.722-13.311-56.28-97.101-59.572-127.725-59.572z" fill="#58E5BB" filter="url(#filter1_i_15473_4390)"/><path d="M63.245 201.377l-14.653-41.075c-2.376-6.661 2.376-13.751 9.196-13.388 62.444 3.327 93.677 30.587 90.06 110.239-13.311-56.28-53.76-55.776-84.604-55.776z" fill="#58E5BB" filter="url(#filter2_i_15473_4390)"/><defs><filter id="filter0_i_15473_4390" x="27.81" y="76.598" width="122.286" height="116.131" filterUnits="userSpaceOnUse" color-interpolation-filters="sRGB"><feFlood flood-opacity="0" result="BackgroundImageFix"/><feBlend in="SourceGraphic" in2="BackgroundImageFix" result="shape"/><feColorMatrix in="SourceAlpha" values="0 0 0 0 0 0 0 0 0 0 0 0 0 0 0 0 0 0 127 0" result="hardAlpha"/><feOffset dy="4"/><feGaussianBlur stdDeviation="2"/><feComposite in2="hardAlpha" operator="arithmetic" k2="-1" k3="1"/><feColorMatrix values="0 0 0 0 0 0 0 0 0 0 0 0 0 0 0 0 0 0 0.25 0"/><feBlend in2="shape" result="effect1_innerShadow_15473_4390"/></filter><filter id="filter1_i_15473_4390" x="6.533" y="6.682" width="142.645" height="114.724" filterUnits="userSpaceOnUse" color-interpolation-filters="sRGB"><feFlood flood-opacity="0" result="BackgroundImageFix"/><feBlend in="SourceGraphic" in2="BackgroundImageFix" result="shape"/><feColorMatrix in="SourceAlpha" values="0 0 0 0 0 0 0 0 0 0 0 0 0 0 0 0 0 0 127 0" result="hardAlpha"/><feOffset dy="4"/><feGaussianBlur stdDeviation="2"/><feComposite in2="hardAlpha" operator="arithmetic" k2="-1" k3="1"/><feColorMatrix values="0 0 0 0 0 0 0 0 0 0 0 0 0 0 0 0 0 0 0.25 0"/><feBlend in2="shape" result="effect1_innerShadow_15473_4390"/></filter><filter id="filter2_i_15473_4390" x="47.972" y="146.9" width="100.158" height="114.252" filterUnits="userSpaceOnUse" color-interpolation-filters="sRGB"><feFlood flood-opacity="0" result="BackgroundImageFix"/><feBlend in="SourceGraphic" in2="BackgroundImageFix" result="shape"/><feColorMatrix in="SourceAlpha" values="0 0 0 0 0 0 0 0 0 0 0 0 0 0 0 0 0 0 127 0" result="hardAlpha"/><feOffset dy="4"/><feGaussianBlur stdDeviation="2"/><feComposite in2="hardAlpha" operator="arithmetic" k2="-1" k3="1"/><feColorMatrix values="0 0 0 0 0 0 0 0 0 0 0 0 0 0 0 0 0 0 0.25 0"/><feBlend in2="shape" result="effect1_innerShadow_15473_4390"/></filter></defs></svg>